<mxfile host="app.diagrams.net" agent="Mozilla/5.0 (Windows NT 10.0; Win64; x64) AppleWebKit/537.36 (KHTML, like Gecko) Chrome/128.0.0.0 Safari/537.36" version="24.7.14">
  <diagram name="Page-1" id="oVaqRufC94u8Exrk_4op">
    <mxGraphModel dx="1050" dy="596" grid="1" gridSize="10" guides="1" tooltips="1" connect="1" arrows="1" fold="1" page="1" pageScale="1" pageWidth="827" pageHeight="1169" math="0" shadow="0">
      <root>
        <mxCell id="0" />
        <mxCell id="1" parent="0" />
        <mxCell id="twN7N7qnYa3-oAq50PjK-1" value="Start" style="ellipse;whiteSpace=wrap;html=1;" vertex="1" parent="1">
          <mxGeometry x="370" y="190" width="120" height="80" as="geometry" />
        </mxCell>
        <mxCell id="twN7N7qnYa3-oAq50PjK-2" value="Login" style="rounded=0;whiteSpace=wrap;html=1;" vertex="1" parent="1">
          <mxGeometry x="370" y="320" width="120" height="60" as="geometry" />
        </mxCell>
        <mxCell id="twN7N7qnYa3-oAq50PjK-3" value="Verified?" style="rhombus;whiteSpace=wrap;html=1;" vertex="1" parent="1">
          <mxGeometry x="390" y="440" width="80" height="80" as="geometry" />
        </mxCell>
        <mxCell id="twN7N7qnYa3-oAq50PjK-4" value="Admin Panel" style="rounded=0;whiteSpace=wrap;html=1;" vertex="1" parent="1">
          <mxGeometry x="370" y="560" width="120" height="60" as="geometry" />
        </mxCell>
        <mxCell id="twN7N7qnYa3-oAq50PjK-8" value="" style="endArrow=classic;html=1;rounded=0;entryX=0.5;entryY=0;entryDx=0;entryDy=0;" edge="1" parent="1" source="twN7N7qnYa3-oAq50PjK-2" target="twN7N7qnYa3-oAq50PjK-3">
          <mxGeometry relative="1" as="geometry">
            <mxPoint x="414" y="380" as="sourcePoint" />
            <mxPoint x="514" y="380" as="targetPoint" />
          </mxGeometry>
        </mxCell>
        <mxCell id="twN7N7qnYa3-oAq50PjK-10" value="" style="endArrow=classic;html=1;rounded=0;entryX=0.5;entryY=0;entryDx=0;entryDy=0;" edge="1" parent="1" target="twN7N7qnYa3-oAq50PjK-2">
          <mxGeometry width="50" height="50" relative="1" as="geometry">
            <mxPoint x="430" y="270" as="sourcePoint" />
            <mxPoint x="480" y="220" as="targetPoint" />
          </mxGeometry>
        </mxCell>
        <mxCell id="twN7N7qnYa3-oAq50PjK-11" value="" style="endArrow=classic;html=1;rounded=0;entryX=0.5;entryY=0;entryDx=0;entryDy=0;exitX=0.5;exitY=1;exitDx=0;exitDy=0;" edge="1" parent="1" source="twN7N7qnYa3-oAq50PjK-3" target="twN7N7qnYa3-oAq50PjK-4">
          <mxGeometry width="50" height="50" relative="1" as="geometry">
            <mxPoint x="480" y="540" as="sourcePoint" />
            <mxPoint x="530" y="490" as="targetPoint" />
          </mxGeometry>
        </mxCell>
        <mxCell id="twN7N7qnYa3-oAq50PjK-17" value="Yes" style="text;html=1;align=center;verticalAlign=middle;resizable=0;points=[];autosize=1;strokeColor=none;fillColor=none;" vertex="1" parent="1">
          <mxGeometry x="420" y="518" width="40" height="30" as="geometry" />
        </mxCell>
        <mxCell id="twN7N7qnYa3-oAq50PjK-20" value="" style="endArrow=none;html=1;rounded=0;" edge="1" parent="1">
          <mxGeometry width="50" height="50" relative="1" as="geometry">
            <mxPoint x="470" y="480" as="sourcePoint" />
            <mxPoint x="580" y="480" as="targetPoint" />
          </mxGeometry>
        </mxCell>
        <mxCell id="twN7N7qnYa3-oAq50PjK-21" value="" style="endArrow=none;html=1;rounded=0;" edge="1" parent="1">
          <mxGeometry width="50" height="50" relative="1" as="geometry">
            <mxPoint x="580" y="480" as="sourcePoint" />
            <mxPoint x="580" y="360" as="targetPoint" />
          </mxGeometry>
        </mxCell>
        <mxCell id="twN7N7qnYa3-oAq50PjK-22" value="" style="endArrow=classic;html=1;rounded=0;entryX=0.987;entryY=0.647;entryDx=0;entryDy=0;entryPerimeter=0;" edge="1" parent="1" target="twN7N7qnYa3-oAq50PjK-2">
          <mxGeometry width="50" height="50" relative="1" as="geometry">
            <mxPoint x="580" y="360" as="sourcePoint" />
            <mxPoint x="489.99999999999994" y="358.82000000000005" as="targetPoint" />
          </mxGeometry>
        </mxCell>
        <mxCell id="twN7N7qnYa3-oAq50PjK-25" value="No" style="text;html=1;align=center;verticalAlign=middle;resizable=0;points=[];autosize=1;strokeColor=none;fillColor=none;" vertex="1" parent="1">
          <mxGeometry x="570" y="408" width="40" height="30" as="geometry" />
        </mxCell>
        <mxCell id="twN7N7qnYa3-oAq50PjK-26" value="" style="endArrow=none;html=1;rounded=0;" edge="1" parent="1">
          <mxGeometry width="50" height="50" relative="1" as="geometry">
            <mxPoint x="430" y="680" as="sourcePoint" />
            <mxPoint x="430" y="620" as="targetPoint" />
          </mxGeometry>
        </mxCell>
        <mxCell id="twN7N7qnYa3-oAq50PjK-27" value="" style="endArrow=none;html=1;rounded=0;" edge="1" parent="1">
          <mxGeometry width="50" height="50" relative="1" as="geometry">
            <mxPoint x="280" y="680" as="sourcePoint" />
            <mxPoint x="600" y="680" as="targetPoint" />
          </mxGeometry>
        </mxCell>
        <mxCell id="twN7N7qnYa3-oAq50PjK-28" value="Manage Listing" style="rounded=0;whiteSpace=wrap;html=1;" vertex="1" parent="1">
          <mxGeometry x="230" y="760" width="120" height="60" as="geometry" />
        </mxCell>
        <mxCell id="twN7N7qnYa3-oAq50PjK-29" value="Remove Listing" style="rounded=0;whiteSpace=wrap;html=1;" vertex="1" parent="1">
          <mxGeometry x="550" y="760" width="120" height="60" as="geometry" />
        </mxCell>
        <mxCell id="twN7N7qnYa3-oAq50PjK-30" value="" style="endArrow=classic;html=1;rounded=0;entryX=0.413;entryY=0.033;entryDx=0;entryDy=0;entryPerimeter=0;" edge="1" parent="1" target="twN7N7qnYa3-oAq50PjK-28">
          <mxGeometry width="50" height="50" relative="1" as="geometry">
            <mxPoint x="280" y="680" as="sourcePoint" />
            <mxPoint x="380" y="700" as="targetPoint" />
          </mxGeometry>
        </mxCell>
        <mxCell id="twN7N7qnYa3-oAq50PjK-31" value="" style="endArrow=classic;html=1;rounded=0;entryX=0.42;entryY=-0.033;entryDx=0;entryDy=0;entryPerimeter=0;" edge="1" parent="1" target="twN7N7qnYa3-oAq50PjK-29">
          <mxGeometry width="50" height="50" relative="1" as="geometry">
            <mxPoint x="600" y="680" as="sourcePoint" />
            <mxPoint x="620" y="690" as="targetPoint" />
          </mxGeometry>
        </mxCell>
        <mxCell id="twN7N7qnYa3-oAq50PjK-33" value="Stop" style="ellipse;whiteSpace=wrap;html=1;" vertex="1" parent="1">
          <mxGeometry x="380" y="930" width="120" height="80" as="geometry" />
        </mxCell>
        <mxCell id="twN7N7qnYa3-oAq50PjK-34" value="" style="edgeStyle=elbowEdgeStyle;elbow=vertical;endArrow=classic;html=1;curved=0;rounded=0;endSize=8;startSize=8;exitX=0.447;exitY=1.007;exitDx=0;exitDy=0;exitPerimeter=0;" edge="1" parent="1" source="twN7N7qnYa3-oAq50PjK-28">
          <mxGeometry width="50" height="50" relative="1" as="geometry">
            <mxPoint x="220" y="920" as="sourcePoint" />
            <mxPoint x="420" y="930" as="targetPoint" />
          </mxGeometry>
        </mxCell>
        <mxCell id="twN7N7qnYa3-oAq50PjK-36" value="" style="edgeStyle=elbowEdgeStyle;elbow=vertical;endArrow=classic;html=1;curved=0;rounded=0;endSize=8;startSize=8;entryX=0.75;entryY=0.045;entryDx=0;entryDy=0;exitX=0.433;exitY=1.007;exitDx=0;exitDy=0;exitPerimeter=0;entryPerimeter=0;" edge="1" parent="1" source="twN7N7qnYa3-oAq50PjK-29" target="twN7N7qnYa3-oAq50PjK-33">
          <mxGeometry width="50" height="50" relative="1" as="geometry">
            <mxPoint x="570" y="980" as="sourcePoint" />
            <mxPoint x="620" y="930" as="targetPoint" />
          </mxGeometry>
        </mxCell>
      </root>
    </mxGraphModel>
  </diagram>
</mxfile>
